<svg width="528" height="231" viewBox="0 0 528 231" fill="none" xmlns="http://www.w3.org/2000/svg">
<g id="Group 22">
<path id="Path 3" fill-rule="evenodd" clip-rule="evenodd" d="M186.361 197.675C262.064 221.368 339.904 260.887 419.596 188.705C499.289 116.523 549.39 53.2913 517.036 -28.5221C484.682 -110.336 352.614 -59.3772 314.242 -132.499C275.869 -205.621 360.183 -271.984 323.833 -337.062C287.484 -402.14 259.534 -443.849 142.718 -402.471C25.9022 -361.092 36.6727 -255.807 -52.1601 -194.153C-140.993 -132.499 -237.104 -40.2003 -105.206 124.494C26.6915 289.188 110.659 173.981 186.361 197.675Z" stroke="#E4E4E4"/>
<path id="Path 3 Copy" fill-rule="evenodd" clip-rule="evenodd" d="M176.895 159.751C238.478 178.991 301.8 211.081 366.629 152.468C431.457 93.8543 472.214 42.5093 445.895 -23.9248C419.575 -90.3588 312.14 -48.9796 280.924 -108.356C249.708 -167.732 318.296 -221.621 288.726 -274.465C259.157 -327.31 236.42 -361.178 141.392 -327.578C46.3638 -293.978 55.1254 -208.484 -17.1389 -158.42C-89.4031 -108.356 -167.588 -33.4076 -60.2912 100.327C47.0059 234.062 115.312 140.511 176.895 159.751Z" stroke="#E4E4E4"/>
<path id="Path 3 Copy 2" fill-rule="evenodd" clip-rule="evenodd" d="M159.188 134.583C209.15 150.281 260.522 176.465 313.117 128.64C365.711 80.8147 398.777 38.9203 377.424 -15.2859C356.071 -69.492 268.91 -35.7291 243.586 -84.1764C218.261 -132.624 273.905 -176.594 249.916 -219.712C225.926 -262.829 207.48 -290.464 130.385 -263.048C53.2899 -235.633 60.398 -165.875 1.77097 -125.026C-56.8561 -84.1764 -120.287 -23.0233 -33.238 86.0961C53.8108 195.215 109.227 118.884 159.188 134.583Z" stroke="#E4E4E4"/>
<path id="Path 3 Copy 5" fill-rule="evenodd" clip-rule="evenodd" d="M140.684 103.816C180.979 116.412 222.412 137.419 264.831 99.0481C307.25 60.6769 333.918 27.0639 316.696 -16.427C299.475 -59.918 229.178 -32.8292 208.753 -71.6997C188.328 -110.57 233.206 -145.848 213.858 -180.443C194.51 -215.038 179.633 -237.21 117.454 -215.213C55.2751 -193.217 61.008 -137.248 13.724 -104.474C-33.56 -71.6997 -84.7182 -22.635 -14.5115 64.9143C55.6952 152.464 100.389 91.221 140.684 103.816Z" stroke="#E4E4E4"/>
<path id="Path 3 Copy 4" fill-rule="evenodd" clip-rule="evenodd" d="M135.917 83.9542C168.827 94.2494 202.666 111.421 237.31 80.0567C271.953 48.6924 293.734 21.2175 279.668 -14.3316C265.603 -49.8808 208.191 -27.7386 191.51 -59.511C174.828 -91.2835 211.481 -120.12 195.679 -148.397C179.877 -176.674 167.727 -194.797 116.945 -176.818C66.1627 -158.838 70.8448 -113.09 32.2274 -86.3006C-6.39001 -59.511 -48.1715 -19.406 9.16714 52.156C66.5058 123.718 103.008 73.6589 135.917 83.9542Z" stroke="#E4E4E4"/>
<path id="Path 3 Copy 3" fill-rule="evenodd" clip-rule="evenodd" d="M126.775 69.594C153.493 77.9543 180.966 91.8987 209.093 66.4291C237.22 40.9595 254.903 18.6482 243.483 -10.2197C232.064 -39.0876 185.452 -21.1069 171.909 -46.9079C158.365 -72.7089 188.123 -96.1255 175.294 -119.088C162.465 -142.051 152.6 -156.768 111.371 -142.168C70.142 -127.567 73.9433 -90.4171 42.5906 -68.6625C11.2378 -46.9079 -22.6838 -14.3403 23.8684 43.7721C70.4205 101.884 100.056 61.2336 126.775 69.594Z" stroke="#E4E4E4"/>
</g>
</svg>
